<svg xmlns="http://www.w3.org/2000/svg" viewBox="0 0 64 64">
  <!-- Central hub node -->
  <circle cx="32" cy="32" r="8" fill="#0a2540" stroke="#00d4ff" stroke-width="2"/>
  <circle cx="32" cy="32" r="4" fill="#00d4ff" opacity="0.8"/>
  <!-- Signal pulse rings -->
  <circle cx="32" cy="32" r="12" fill="none" stroke="#00d4ff" stroke-width="0.8" opacity="0.4"/>
  <circle cx="32" cy="32" r="16" fill="none" stroke="#00d4ff" stroke-width="0.5" opacity="0.2"/>
  <!-- Connection lines -->
  <line x1="32" y1="24" x2="32" y2="12" stroke="#68f0ff" stroke-width="1.5" stroke-dasharray="3 2"/>
  <line x1="38" y1="27" x2="50" y2="15" stroke="#68f0ff" stroke-width="1.5" stroke-dasharray="3 2"/>
  <line x1="40" y1="32" x2="54" y2="32" stroke="#68f0ff" stroke-width="1.5" stroke-dasharray="3 2"/>
  <line x1="38" y1="37" x2="50" y2="49" stroke="#68f0ff" stroke-width="1.5" stroke-dasharray="3 2"/>
  <line x1="32" y1="40" x2="32" y2="52" stroke="#68f0ff" stroke-width="1.5" stroke-dasharray="3 2"/>
  <line x1="26" y1="37" x2="14" y2="49" stroke="#68f0ff" stroke-width="1.5" stroke-dasharray="3 2"/>
  <line x1="24" y1="32" x2="10" y2="32" stroke="#68f0ff" stroke-width="1.5" stroke-dasharray="3 2"/>
  <line x1="26" y1="27" x2="14" y2="15" stroke="#68f0ff" stroke-width="1.5" stroke-dasharray="3 2"/>
  <!-- Outer sensor nodes -->
  <circle cx="32" cy="10" r="4" fill="#0d3060" stroke="#00d4ff" stroke-width="1.2"/>
  <rect x="30" y="8" width="4" height="4" rx="1" fill="#ff7a2d" opacity="0.9"/>
  <circle cx="52" cy="13" r="4" fill="#0d3060" stroke="#00d4ff" stroke-width="1.2"/>
  <rect x="50" y="11" width="4" height="4" rx="1" fill="#ff7a2d" opacity="0.9"/>
  <circle cx="56" cy="32" r="4" fill="#0d3060" stroke="#00d4ff" stroke-width="1.2"/>
  <rect x="54" y="30" width="4" height="4" rx="1" fill="#00d4ff" opacity="0.9"/>
  <circle cx="52" cy="51" r="4" fill="#0d3060" stroke="#00d4ff" stroke-width="1.2"/>
  <rect x="50" y="49" width="4" height="4" rx="1" fill="#ff7a2d" opacity="0.9"/>
  <circle cx="32" cy="54" r="4" fill="#0d3060" stroke="#00d4ff" stroke-width="1.2"/>
  <rect x="30" y="52" width="4" height="4" rx="1" fill="#00d4ff" opacity="0.9"/>
  <circle cx="12" cy="51" r="4" fill="#0d3060" stroke="#00d4ff" stroke-width="1.2"/>
  <rect x="10" y="49" width="4" height="4" rx="1" fill="#ff7a2d" opacity="0.9"/>
  <circle cx="8" cy="32" r="4" fill="#0d3060" stroke="#00d4ff" stroke-width="1.2"/>
  <rect x="6" y="30" width="4" height="4" rx="1" fill="#00d4ff" opacity="0.9"/>
  <circle cx="12" cy="13" r="4" fill="#0d3060" stroke="#00d4ff" stroke-width="1.2"/>
  <rect x="10" y="11" width="4" height="4" rx="1" fill="#ff7a2d" opacity="0.9"/>
</svg>